<svg width="52" height="52" viewBox="0 0 52 52" fill="none" xmlns="http://www.w3.org/2000/svg">
<rect width="52" height="52" rx="20" fill="#F9FAFB"/>
<path d="M17 19.5084H26.9808L27.6385 18.1358C27.9711 17.4417 28.6725 17 29.4421 17H35.077C36.1815 17 37.077 17.8954 37.077 19V31.3077C37.077 32.9646 35.7338 34.3077 34.077 34.3077H17C15.3431 34.3077 14 32.9646 14 31.3077V22.5084C14 20.8515 15.3431 19.5084 17 19.5084Z" fill="#FFDD55"/>
<rect x="26.5" y="26.6155" width="12.5" height="10.5769" rx="3" fill="#8486F3"/>
<path d="M35.0657 31.2975C35.5324 31.5669 35.5324 32.2405 35.0657 32.5099L32.1176 34.212C31.651 34.4814 31.0676 34.1447 31.0676 33.6058L31.0676 30.2016C31.0676 29.6628 31.651 29.326 32.1176 29.5954L35.0657 31.2975Z" fill="white"/>
</svg>
