<svg width="52" height="52" viewBox="0 0 52 52" fill="none" xmlns="http://www.w3.org/2000/svg">
<rect width="52" height="52" rx="20" fill="#F9FAFB"/>
<path d="M25.5342 14C31.3523 14 36.0693 18.717 36.0693 24.5352C36.0692 30.3532 31.3522 35.0693 25.5342 35.0693C23.9423 35.0693 22.434 34.7142 21.0811 34.082L16.8008 35.2158C15.744 35.4954 14.8352 34.4253 15.2822 33.4277L16.6982 30.2686C15.6252 28.6183 15 26.6502 15 24.5352C15 18.7171 19.7161 14.0001 25.5342 14Z" fill="#B0D3FF"/>
<rect x="20.3335" y="21.1111" width="10.6667" height="1.77778" rx="0.888889" fill="white"/>
<rect x="20.3335" y="26.4443" width="8" height="1.77778" rx="0.888889" fill="white"/>
<circle cx="33.6663" cy="33.6668" r="5.33333" fill="#FF686D"/>
<path d="M34.4483 31.3677C34.4482 30.6565 34.2692 30.2727 33.6269 30.2727C32.9846 30.2727 32.8058 30.7002 32.8058 31.3677C32.8058 31.976 32.7782 35.2628 33.6105 35.2628C34.4427 35.2628 34.4483 31.9768 34.4483 31.3677Z" fill="white"/>
<circle cx="33.6032" cy="36.6079" r="0.797576" fill="white"/>
</svg>
